<svg xmlns="http://www.w3.org/2000/svg" version="1.1" xmlns:xlink="http://www.w3.org/1999/xlink" xmlns:svgjs="http://svgjs.dev/svgjs" width="1500" height="1772" viewBox="0 0 1500 1772"><g transform="matrix(1,0,0,1,-0.22641263497484942,0)"><svg viewBox="0 0 237 280" data-background-color="#6936f5" preserveAspectRatio="xMidYMid meet" height="1772" width="1500" xmlns="http://www.w3.org/2000/svg" xmlns:xlink="http://www.w3.org/1999/xlink"><g id="tight-bounds" transform="matrix(1,0,0,1,0.035773196326033485,0)"><svg viewBox="0 0 236.92845360734796 280" height="280" width="236.92845360734796"><g><svg viewBox="0 0 278.2696 328.8566097220481" height="280" width="236.92845360734796"><g><svg viewBox="0 0 278.2696 328.8566097220481" height="328.8566097220481" width="278.2696"><g id="textblocktransform"><svg viewBox="0 0 278.2696 328.8566097220481" height="328.8566097220481" width="278.2696" id="textblock"><g><svg viewBox="0 0 278.2696 278.2696" height="278.2696" width="278.2696"><g transform="matrix(1,0,0,1,89.94321971048298,89.9442987655392)"><svg viewBox="0 0 98.38316057903407 98.38100246892164" height="98.38100246892164" width="98.38316057903407"><g><svg xmlns="http://www.w3.org/2000/svg" xmlns:xlink="http://www.w3.org/1999/xlink" version="1.0" x="0" y="0" viewBox="5.117707427831219 5.261473584441033 89.54824524716878 89.5462809377028" enable-background="new 0 0 100 100" xml:space="preserve" height="98.38100246892164" width="98.38316057903407" class="icon-xg-0" data-fill-palette-color="accent" id="xg-0"><path d="M88.387 11.539c-8.371-8.37-21.94-8.371-30.314 0.001l-46.676 46.678c-8.371 8.371-8.373 21.942 0 30.312 8.371 8.37 21.939 8.37 30.314-0.001l46.676-46.677C96.759 33.481 96.759 19.909 88.387 11.539zM85.064 38.559l-16.814 16.816c-0.727-5.818-3.317-11.446-7.784-15.915-1.31-1.307-2.717-2.449-4.201-3.435L22.193 70.094c-1.422 1.425-3.734 1.425-5.157 0.001-1.424-1.426-1.424-3.734 0-5.16l32.235-32.236c-1.544-0.478-3.125-0.823-4.719-1.021l16.816-16.817c6.546-6.544 17.153-6.544 23.696 0C91.608 21.404 91.611 32.014 85.064 38.559z" fill="#ffffff" data-fill-palette-color="accent"></path></svg></g></svg></g><g><path d="M5.798 100.997l-0.801 2.353-2.061-0.702 2.65-7.783c1.045-3.068 2.343-5.164 3.895-6.287 1.554-1.13 3.783-1.201 6.688-0.212 2.905 0.989 4.789 2.488 5.652 4.498 0.865 2.003 0.793 4.488-0.218 7.455v0l-0.984 2.889 8.112 2.763 0.907-2.664 2.061 0.702-2.573 7.557-2.061-0.702 0.801-2.353zM7.583 95.755v0l-0.92 2.701 11.895 4.051 0.92-2.701c0.763-2.24 0.841-4.083 0.234-5.529-0.607-1.446-2.027-2.549-4.261-3.309-2.233-0.761-3.91-0.719-5.031 0.124-1.12 0.844-2.066 2.398-2.837 4.663z" fill="#ffffff" data-fill-palette-color="primary"></path><path d="M37.248 57.959l-1.664 2.055-1.537-1.245 3.278-4.049 13.822 11.191 1.864-2.302 1.538 1.244-5.023 6.205-1.538-1.245 1.545-1.908zM32.37 52.436c-0.329 0.407-0.715 0.619-1.156 0.637-0.441 0.018-0.87-0.142-1.288-0.479-0.422-0.342-0.664-0.734-0.724-1.175-0.066-0.445 0.066-0.872 0.396-1.279 0.334-0.412 0.731-0.64 1.193-0.684 0.461-0.053 0.913 0.1 1.356 0.458 0.438 0.354 0.667 0.762 0.687 1.222 0.024 0.455-0.13 0.888-0.464 1.3z" fill="#ffffff" data-fill-palette-color="primary"></path><path d="M62.656 22.283l-2.215 1.444-1.075-1.649 4.365-2.844 15.098 23.171 2.482-1.617 1.08 1.658-6.688 4.358-1.08-1.658 2.057-1.34z" fill="#ffffff" data-fill-palette-color="primary"></path><path d="M102.765 4.55l-2.55 0.7-0.521-1.898 5.024-1.38 7.322 26.67 2.857-0.784 0.524 1.907-7.698 2.114-0.524-1.908 2.368-0.65z" fill="#ffffff" data-fill-palette-color="primary"></path><path d="M149.142 2.414l-2.473-0.248 0.217-2.166 8.18 0.819c3.225 0.323 5.56 1.113 7.006 2.37 1.453 1.258 2.026 3.413 1.721 6.467-0.306 3.053-1.339 5.228-3.101 6.523-1.755 1.296-4.192 1.788-7.312 1.476v0l-3.036-0.304-0.854 8.527 2.799 0.28-0.217 2.166-7.943-0.795 0.217-2.166 2.473 0.247zM154.651 2.966v0l-2.839-0.285-1.251 12.504 2.839 0.284c2.354 0.236 4.167-0.106 5.437-1.024 1.271-0.918 2.024-2.552 2.259-4.9 0.235-2.348-0.185-3.972-1.26-4.871-1.075-0.9-2.804-1.47-5.185-1.708z" fill="#ffffff" data-fill-palette-color="primary"></path><path d="M192.805 40.996v0c-3.073-1.687-4.036-3.796-2.889-6.327v0c0.063-0.17 0.139-0.336 0.228-0.498v0c1.065-1.94 2.943-2.592 5.633-1.954v0c1.468 0.383 4.165 1.379 8.089 2.99v0l1.464-2.667c1.381-2.515 0.756-4.496-1.876-5.94v0c-1.907-1.017-4.157-1.682-6.752-1.996v0l0.234-1.81 0.417 0.047c2.237 0.208 3.874 0.49 4.91 0.847 1.036 0.357 1.775 0.65 2.217 0.878 0.448 0.231 0.866 0.468 1.254 0.711 0.394 0.247 0.862 0.64 1.405 1.18 0.543 0.54 0.96 1.109 1.251 1.707 0.289 0.59 0.422 1.317 0.401 2.183-0.018 0.859-0.281 1.751-0.788 2.674v0l-5.856 10.666 2.666 1.464-0.952 1.735-4.575-2.513 0.374-1.507c-2.612-0.172-4.898-0.795-6.855-1.87zM194.299 39.741v0c1.754 0.963 3.782 1.566 6.083 1.809v0l2.723-4.958c-3.526-1.785-5.893-2.782-7.101-2.992v0c-0.899-0.222-1.66-0.151-2.282 0.21-0.619 0.371-1.017 0.716-1.192 1.036-0.179 0.325-0.3 0.546-0.364 0.662v0c-0.392 0.866-0.364 1.66 0.086 2.384 0.441 0.726 1.123 1.342 2.047 1.849z" fill="#ffffff" data-fill-palette-color="primary"></path><path d="M246.896 48.681l-1.747-1.985 1.478-1.3 3.441 3.911-20.763 18.269 1.957 2.224-1.485 1.307-5.274-5.993 1.486-1.307 1.622 1.843z" fill="#ffffff" data-fill-palette-color="primary"></path><path d="M270.201 85.829l-1.06-2.423 1.804-0.789 2.087 4.773-25.34 11.08 1.186 2.714-1.812 0.793-3.198-7.314 1.812-0.793 0.984 2.25z" fill="#ffffff" data-fill-palette-color="primary"></path><path d="M36.508 174.2l-0.875-2.527 2.198-0.761 2.882 8.323c1.136 3.282 1.418 5.909 0.846 7.882-0.57 1.979-2.409 3.506-5.515 4.581-3.106 1.076-5.683 1.049-7.729-0.08-2.052-1.127-3.628-3.278-4.728-6.453v0l-1.066-3.082-8.681 3.006 0.986 2.846-2.198 0.761-2.801-8.088 2.199-0.761 0.874 2.527zM38.446 179.799v0l-0.998-2.884-12.72 4.404 0.999 2.884c0.83 2.399 1.978 4.011 3.442 4.836 1.462 0.819 3.386 0.816 5.772-0.01 2.386-0.826 3.777-1.964 4.173-3.412 0.394-1.455 0.171-3.394-0.668-5.818z" fill="#ffffff" data-fill-palette-color="primary"></path><path d="M50.276 217.495l-1.797-2.204 1.641-1.338 3.531 4.33-14.762 12.037 2.01 2.465-1.641 1.339-5.403-6.626 1.641-1.338 1.659 2.034zM57.145 213.586c-0.36-0.442-0.5-0.892-0.421-1.35 0.075-0.463 0.339-0.879 0.791-1.248 0.447-0.364 0.909-0.532 1.387-0.502 0.477 0.03 0.894 0.263 1.25 0.7 0.356 0.437 0.509 0.902 0.459 1.396-0.05 0.494-0.312 0.934-0.785 1.319-0.467 0.381-0.942 0.533-1.424 0.456-0.482-0.077-0.901-0.334-1.257-0.771z" fill="#ffffff" data-fill-palette-color="primary"></path><path d="M82.737 232.221l-2.373-1.549 1.158-1.773 4.678 3.055-16.203 24.812 2.655 1.734-1.158 1.773-7.158-4.674 1.158-1.773 2.197 1.435z" fill="#ffffff" data-fill-palette-color="primary"></path><path d="M112.004 245.178l-2.728-0.766 0.572-2.039 5.379 1.511-8.009 28.531 3.053 0.858-0.572 2.038-8.232-2.31 0.573-2.039 2.526 0.709z" fill="#ffffff" data-fill-palette-color="primary"></path><path d="M144.941 250.831l-2.663 0.249-0.217-2.316 8.769-0.822c3.458-0.324 6.077 0.026 7.857 1.05 1.787 1.024 2.834 3.172 3.141 6.445 0.307 3.273-0.331 5.769-1.913 7.488-1.582 1.726-4.046 2.746-7.391 3.06v0l-3.247 0.305 0.858 9.145 2.999-0.281 0.218 2.316-8.522 0.8-0.218-2.316 2.663-0.25zM150.84 250.277v0l-3.039 0.285 1.258 13.402 3.038-0.285c2.527-0.237 4.366-0.969 5.516-2.195 1.143-1.226 1.597-3.095 1.361-5.61-0.236-2.514-1.01-4.135-2.324-4.864-1.32-0.728-3.256-0.973-5.81-0.733z" fill="#ffffff" data-fill-palette-color="primary"></path><path d="M202.148 262.925v0c-3.296 1.791-5.75 1.439-7.363-1.057v0c-0.124-0.159-0.234-0.326-0.328-0.5v0c-1.13-2.079-0.633-4.148 1.492-6.208v0c1.205-1.1 3.668-2.952 7.39-5.555v0l-1.557-2.865c-1.468-2.702-3.615-3.285-6.439-1.75v0c-2.02 1.128-3.921 2.772-5.703 4.932v0l-1.507-1.252 0.295-0.352c1.474-1.895 2.674-3.207 3.598-3.936 0.918-0.725 1.61-1.222 2.075-1.49 0.465-0.268 0.923-0.509 1.373-0.723 0.444-0.211 1.07-0.404 1.879-0.58 0.801-0.179 1.551-0.228 2.251-0.148 0.703 0.086 1.437 0.388 2.201 0.908 0.762 0.514 1.412 1.266 1.95 2.255v0l6.228 11.46 2.865-1.557 1.011 1.861-4.909 2.668-1.144-1.211c-1.664 2.254-3.55 3.954-5.658 5.1zM201.89 260.847v0c1.881-1.022 3.596-2.501 5.147-4.437v0l-2.891-5.32c-3.646 2.147-5.914 3.704-6.807 4.672v0c-0.724 0.68-1.1 1.405-1.127 2.174-0.033 0.772 0.046 1.333 0.236 1.683 0.187 0.344 0.315 0.579 0.384 0.707v0c0.56 0.85 1.294 1.284 2.202 1.304 0.908 0.019 1.86-0.241 2.856-0.783z" fill="#ffffff" data-fill-palette-color="primary"></path><path d="M218.835 212.834l-1.885 2.115-1.58-1.409 3.717-4.171 22.123 19.718 2.11-2.368 1.581 1.409-5.688 6.383-1.581-1.409 1.746-1.959z" fill="#ffffff" data-fill-palette-color="primary"></path><path d="M236.003 185.818l-1.164 2.583-1.931-0.87 2.295-5.094 27.02 12.172 1.302-2.891 1.931 0.869-3.511 7.795-1.931-0.869 1.078-2.393z" fill="#ffffff" data-fill-palette-color="primary"></path><path d="M3.717 142.699c0-6.252 5.068-11.321 11.32-11.32 6.252 0 11.321 5.068 11.321 11.32 0 6.252-5.068 11.321-11.321 11.321-6.252 0-11.321-5.068-11.32-11.321z" fill="#ffffff" data-fill-palette-color="primary"></path><path d="M252.693 142.699c0-6.252 5.068-11.321 11.32-11.32 6.252 0 11.321 5.068 11.321 11.32 0 6.252-5.068 11.321-11.321 11.321-6.252 0-11.321-5.068-11.32-11.321z" fill="#ffffff" data-fill-palette-color="primary"></path></g></svg></g><g transform="matrix(1,0,0,1,53.1494936,298.00852000000003)"><svg viewBox="0 0 171.97061280000003 30.848089722048073" height="30.848089722048073" width="171.97061280000003"><g transform="matrix(1,0,0,1,0,0)"><svg width="171.97061280000003" viewBox="1.95 -38.3 287.07 51.5" height="30.848089722048073" data-palette-color="#ffffff"><path d="M22.75-26.05L21.05-31.75Q18.35-32.7 15.5-32.7 12.65-32.7 10.5-31.08 8.35-29.45 8.35-26.25L8.35-26.25Q8.35-23.15 11-21.5L11-21.5Q12.45-20.6 13.38-20.2 14.3-19.8 16.07-19.15 17.85-18.5 18.5-18.23 19.15-17.95 20.43-17.38 21.7-16.8 22.33-16.35 22.95-15.9 23.85-15.1 24.75-14.3 25.2-13.5L25.2-13.5Q26.3-11.45 26.3-9.05L26.3-9.05Q26.3-4.8 22.85-2.1 19.4 0.6 13.9 0.6L13.9 0.6Q9.7 0.6 6.05-0.8L6.05-0.8Q4.25-1.45 3.1-2.6 1.95-3.75 1.95-5.25L1.95-5.25Q1.95-7.7 5.5-8.6L5.5-8.6Q6.05-5.6 7.6-3.75 9.15-1.9 10.83-1.3 12.5-0.7 14.93-0.7 17.35-0.7 19.5-2.27 21.65-3.85 21.65-7.45L21.65-7.45Q21.65-10.2 19.15-11.95L19.15-11.95Q17.15-13.3 14.23-14.5 11.3-15.7 10.3-16.13 9.3-16.55 7.73-17.48 6.15-18.4 5.4-19.3L5.4-19.3Q3.45-21.65 3.45-24.7L3.45-24.7Q3.45-29.4 6.8-31.8 10.15-34.2 16.05-34.2L16.05-34.2Q19.6-34.2 24.3-33.4L24.3-33.4 24.3-26.05 22.75-26.05ZM45.8-5.2L45.8-5.2Q45.8-5.05 45.75-4.85L45.75-4.85Q44.95-2.4 43.07-0.93 41.2 0.55 38.7 0.55 36.2 0.55 34.52-0.88 32.85-2.3 32.85-6.45L32.85-6.45Q32.85-7.6 33.1-23.1L33.1-23.1 29.65-23.1 29.65-24.4 33.15-24.4 33.2-31.75 38.1-31.75 37.95-24.4 45.1-24.4 45.1-23.1 37.95-23.1Q37.7-6.95 37.7-4.2L37.7-4.2Q37.7-0.85 39.9-0.85L39.9-0.85Q41.25-0.85 42.72-2.4 44.2-3.95 44.8-5.9L44.8-5.9Q45.8-5.9 45.8-5.2ZM53.45-5.4L53.45-5.4Q53.45-2.15 56.09-1.55L56.09-1.55Q56.7-1.4 57.25-1.4L57.25-1.4Q59.15-1.4 61.2-3.03 63.25-4.65 63.34-7.4L63.34-7.4 63.34-11.7Q53.45-11.6 53.45-5.4ZM55.45 0.6L55.45 0.6Q52.59 0.6 50.57-0.98 48.55-2.55 48.55-5.4L48.55-5.4Q48.59-9.25 52.42-11.15 56.25-13.05 63.34-13.05L63.34-13.05 63.34-17.35Q63.34-23.7 58.75-23.7L58.75-23.7Q56.4-23.7 54.95-21.75L54.95-21.75Q53.95-20.4 53.95-18.4L53.95-18.4Q53.95-17.55 54.15-16.6L54.15-16.6Q53.45-16.1 52.72-16.1 52-16.1 51.3-16.4L51.3-16.4Q49.7-17 49.7-18.7L49.7-18.7Q49.7-21 51.34-22.5L51.34-22.5Q54.05-24.95 58.8-24.95 63.55-24.95 65.7-22.93 67.84-20.9 67.84-16.55L67.84-16.55 67.84-1.4 72.05-1.2 72.09-0.05 63.75 0.55 63.3-3.9Q61 0.6 55.45 0.6ZM80.67 10.2Q79.64 11.35 78.09 12.28 76.54 13.2 74.97 13.2 73.39 13.2 72.52 12.38 71.64 11.55 71.64 10.18 71.64 8.8 72.89 7.4L72.89 7.4Q74.29 9 76.04 9L76.04 9Q78.54 9 80.34 6.83 82.14 4.65 83.84 0L83.84 0 74.24-22.8 71.69-23.1 71.69-24.4 82.34-24.4 82.34-23.1 78.89-22.8 86.04-5.35 92.19-22.15 88.19-23.1 88.19-24.4 97.79-24.4 97.79-23.1 94.29-22.15 85.84 0Q84.94 2.3 84.44 3.55 83.94 4.8 82.82 6.93 81.69 9.05 80.67 10.2ZM147.99-1.2L147.99 0 134.14 0 134.14-1.2 138.49-1.65 138.49-16.5 120.74-16.5 120.74-1.65 125.09-1.2 125.09 0 111.24 0 111.24-1.2 115.59-1.65 115.59-31.75 111.24-32.2 111.24-33.4 125.09-33.4 125.09-32.2 120.74-31.75 120.74-18.3 138.49-18.3 138.49-31.75 134.14-32.2 134.14-33.4 147.99-33.4 147.99-32.2 143.64-31.75 143.64-1.65 147.99-1.2ZM162.69 0.55Q157.54 0.55 154.39-2.95 151.24-6.45 151.24-12.2 151.24-17.95 154.56-21.45 157.89-24.95 162.94-24.95 167.99-24.95 170.49-22.68 172.99-20.4 172.99-16.35L172.99-16.35Q172.99-15.15 172.79-13.95L172.79-13.95 156.64-13.95 156.64-12.2Q156.64-6.6 158.24-3.73 159.84-0.85 163.49-0.85L163.49-0.85Q168.64-0.85 171.44-5.35L171.44-5.35Q172.54-5 172.54-4.3L172.54-4.3Q172.54-3.05 170.24-1.4L170.24-1.4Q169.14-0.6 167.14-0.03 165.14 0.55 162.69 0.55L162.69 0.55ZM168.24-17.4L168.24-17.4Q168.24-19.7 167.29-21.35L167.29-21.35Q165.99-23.55 163.09-23.55L163.09-23.55Q157.69-23.55 156.79-15.75L156.79-15.75 168.14-15.75Q168.24-16.6 168.24-17.4ZM182.13-5.4L182.13-5.4Q182.13-2.15 184.78-1.55L184.78-1.55Q185.38-1.4 185.93-1.4L185.93-1.4Q187.83-1.4 189.88-3.03 191.93-4.65 192.03-7.4L192.03-7.4 192.03-11.7Q182.13-11.6 182.13-5.4ZM184.13 0.6L184.13 0.6Q181.28 0.6 179.26-0.98 177.23-2.55 177.23-5.4L177.23-5.4Q177.28-9.25 181.11-11.15 184.93-13.05 192.03-13.05L192.03-13.05 192.03-17.35Q192.03-23.7 187.43-23.7L187.43-23.7Q185.08-23.7 183.63-21.75L183.63-21.75Q182.63-20.4 182.63-18.4L182.63-18.4Q182.63-17.55 182.83-16.6L182.83-16.6Q182.13-16.1 181.41-16.1 180.68-16.1 179.98-16.4L179.98-16.4Q178.38-17 178.38-18.7L178.38-18.7Q178.38-21 180.03-22.5L180.03-22.5Q182.73-24.95 187.48-24.95 192.23-24.95 194.38-22.93 196.53-20.9 196.53-16.55L196.53-16.55 196.53-1.4 200.73-1.2 200.78-0.05 192.43 0.55 191.98-3.9Q189.68 0.6 184.13 0.6ZM213.73-1.2L213.73 0 202.23 0 202.23-1.2 205.53-1.45 205.53-35.9 201.08-36.1 201.08-37.25 210.43-38.3 210.43-1.45 213.73-1.2ZM232.43-5.2L232.43-5.2Q232.43-5.05 232.38-4.85L232.38-4.85Q231.58-2.4 229.7-0.93 227.83 0.55 225.33 0.55 222.83 0.55 221.15-0.88 219.48-2.3 219.48-6.45L219.48-6.45Q219.48-7.6 219.73-23.1L219.73-23.1 216.28-23.1 216.28-24.4 219.78-24.4 219.83-31.75 224.73-31.75 224.58-24.4 231.73-24.4 231.73-23.1 224.58-23.1Q224.33-6.95 224.33-4.2L224.33-4.2Q224.33-0.85 226.53-0.85L226.53-0.85Q227.88-0.85 229.35-2.4 230.83-3.95 231.43-5.9L231.43-5.9Q232.43-5.9 232.43-5.2ZM251.28-24.75L251.28-24.75Q259.28-24.75 259.28-17.05L259.28-17.05Q259.28-11.5 258.93-1.45L258.93-1.45 262.48-1.2 262.48 0 251.33 0 251.33-1.2 254.03-1.4Q254.38-14.6 254.38-17.43 254.38-20.25 253.33-21.65 252.28-23.05 249.7-23.05 247.13-23.05 244.88-20.6 242.63-18.15 242.63-16.1L242.63-16.1 242.63-1.45 245.93-1.2 245.93 0 234.43 0 234.43-1.2 237.73-1.45 237.73-35.9 233.33-36.1 233.28-37.25 242.63-38.3Q242.33-21.15 242.28-20L242.28-20 242.68-20Q244.03-22.3 246.3-23.53 248.58-24.75 251.28-24.75ZM271.9 10.2Q270.87 11.35 269.32 12.28 267.77 13.2 266.2 13.2 264.62 13.2 263.75 12.38 262.87 11.55 262.87 10.18 262.87 8.8 264.12 7.4L264.12 7.4Q265.52 9 267.27 9L267.27 9Q269.77 9 271.57 6.83 273.37 4.65 275.07 0L275.07 0 265.47-22.8 262.92-23.1 262.92-24.4 273.57-24.4 273.57-23.1 270.12-22.8 277.27-5.35 283.42-22.15 279.42-23.1 279.42-24.4 289.02-24.4 289.02-23.1 285.52-22.15 277.07 0Q276.17 2.3 275.67 3.55 275.17 4.8 274.05 6.93 272.92 9.05 271.9 10.2Z" opacity="1" transform="matrix(1,0,0,1,0,0)" fill="#ffffff" class="slogan-text-1" data-fill-palette-color="secondary" id="text-1"></path></svg></g></svg></g></svg></g></svg></g></svg></g><defs></defs></svg><rect width="236.92845360734796" height="280" fill="none" stroke="none" visibility="hidden"></rect></g></svg></g></svg>